<?xml version="1.0" encoding="UTF-8"?>
<svg id="Layer_1" data-name="Layer 1" xmlns="http://www.w3.org/2000/svg" viewBox="0 0 259.2 108">
  <defs>
    <style>
      .cls-1 {
        fill: #38d92d;
      }

      .cls-1, .cls-2 {
        stroke-width: 0px;
      }

      .cls-2 {
        fill: #fff;
      }
    </style>
  </defs>
  <g>
    <g>
      <path class="cls-2" d="m96.92,24.11c8.11,0,12.96,5.26,12.96,13v.04c0,7.7-4.85,12.96-12.96,12.96h-9.88v-26h9.88Zm-5.71,22.05h5.71c5.45,0,8.75-3.68,8.75-9.02v-.04c0-5.33-3.31-9.05-8.75-9.05h-5.71v18.11Z"/>
      <path class="cls-2" d="m136.02,50.11h-4.7l-5.79-8.79h-6.39v8.79h-4.17v-26h10.33c6.5,0,10.07,3.34,10.07,8.72v.04c0,3.94-2.03,6.76-5.86,7.89l6.5,9.35Zm-16.87-22.2v9.77h6.16c3.72,0,5.9-1.62,5.9-4.81v-.04c0-3.23-2.18-4.92-5.9-4.92h-6.16Z"/>
      <path class="cls-2" d="m150.25,36.85l8-12.74h4.62l-10.52,16.49v9.5h-4.21v-9.5l-10.52-16.49h4.58l8.04,12.74Z"/>
      <path class="cls-2" d="m187.89,50.11h-4.7l-5.78-8.79h-6.39v8.79h-4.17v-26h10.33c6.5,0,10.07,3.34,10.07,8.72v.04c0,3.94-2.03,6.76-5.86,7.89l6.5,9.35Zm-16.87-22.2v9.77h6.16c3.72,0,5.9-1.62,5.9-4.81v-.04c0-3.23-2.18-4.92-5.9-4.92h-6.16Z"/>
      <path class="cls-2" d="m210.57,24.11h4.21v14.39c0,8.53-5,12.06-11.31,12.06h-.04c-6.31,0-11.31-3.53-11.31-12.06v-14.39h4.21v14.39c0,6.01,3.46,8,7.1,8h.04c3.64,0,7.1-1.99,7.1-8v-14.39Z"/>
      <path class="cls-2" d="m239.12,24.11h4.06v26h-3.83l-14.5-19.01v19.01h-4.06v-26h3.83l14.5,19.01v-19.01Z"/>
    </g>
    <g>
      <path class="cls-2" d="m100.47,69.4c-1.06-1.73-2.73-2.67-5.27-2.67h-.03c-2.7,0-4.26.98-4.26,2.51,0,1.09.61,2.01,2.93,2.56l4.15.98c3.62.84,4.63,3.23,4.6,5.68,0,3.34-2.93,5.43-7.38,5.43h-.03c-4.01,0-6.85-1.53-8.16-4.35l2.56-1.84c1.14,2.45,3.06,3.43,5.66,3.43h.03c2.73,0,4.18-1.11,4.18-2.76,0-1.37-.78-2.34-2.76-2.87l-4.54-1.14c-3.2-.78-4.37-2.76-4.37-5.01,0-3.48,2.93-5.41,7.52-5.41h.03c3.29,0,5.68,1.2,7.02,3.2l-1.87,2.26Z"/>
      <path class="cls-2" d="m122.03,64.27v2.9h-9.75v5.32h8.75v2.93h-8.75v5.24h9.75v2.9h-12.84v-19.28h12.84Z"/>
      <path class="cls-2" d="m142.51,68.48c-1.34-1.11-3.01-1.64-4.82-1.64h-.03c-4.1,0-6.74,2.98-6.74,7.05v.03c.03,4.12,2.67,7.08,6.74,7.08h.03c1.95,0,3.54-.59,4.82-1.64l1.7,2.34c-1.73,1.51-3.93,2.2-6.52,2.2h-.03c-6.05,0-9.84-4.07-9.84-9.97v-.03c0-5.88,3.79-9.95,9.84-9.95h.03c2.42,0,4.71.64,6.52,2.2l-1.7,2.34Z"/>
      <path class="cls-2" d="m163.71,64.27h3.12v10.67c0,6.33-3.71,8.94-8.39,8.94h-.03c-4.68,0-8.39-2.62-8.39-8.94v-10.67h3.12v10.67c0,4.46,2.56,5.94,5.27,5.94h.03c2.7,0,5.27-1.48,5.27-5.94v-10.67Z"/>
      <path class="cls-2" d="m189.75,83.55h-3.48l-4.29-6.52h-4.74v6.52h-3.09v-19.28h7.66c4.82,0,7.47,2.48,7.47,6.46v.03c0,2.93-1.51,5.01-4.35,5.85l4.82,6.94Zm-12.51-16.47v7.24h4.57c2.76,0,4.37-1.2,4.37-3.57v-.03c0-2.4-1.62-3.65-4.37-3.65h-4.57Z"/>
      <path class="cls-2" d="m196.24,83.55v-19.28h3.09v19.28h-3.09Z"/>
      <path class="cls-2" d="m221.01,64.27v2.98h-6.13v16.3h-3.12v-16.3h-6.13v-2.98h15.38Z"/>
      <path class="cls-2" d="m233.85,73.72l5.94-9.45h3.43l-7.8,12.23v7.05h-3.12v-7.05l-7.8-12.23h3.4l5.96,9.45Z"/>
    </g>
  </g>
  <path class="cls-2" d="m73.63,29.44h-3.23c-.28,0-.5.22-.5.5v2.86l-17.45,30.28h0l-4.92-9.43,5.71-11.34h2.3c.28,0,.5-.22.5-.5v-3.23c0-.28-.22-.5-.5-.5h-3.23c-.28,0-.5.22-.5.5v.87h-10.43v-.87c0-.28-.22-.5-.5-.5h-3.23c-.28,0-.5.22-.5.5v3.23c0,.28.22.5.5.5h2.28l5.92,11.35-11.83,23.51-13.81-26.36v-2.89c0-.28-.22-.5-.5-.5h-3.23c-.28,0-.5.22-.5.5v3.23c0,.28.22.5.5.5h2.49l13.39,25.57c-.27.01-.48.23-.48.5v3.23c0,.28.22.5.5.5h3.23c.28,0,.5-.22.5-.5v-3.23s0-.03,0-.05c-.02-.23-.21-.41-.45-.44l11.04-21.93,4.07,7.8c-.23.04-.42.24-.42.48v3.23c0,.28.22.5.5.5h3.23c.28,0,.5-.22.5-.5v-3.23c0-.25-.19-.45-.42-.48l16.96-29.43h2.51c.28,0,.5-.22.5-.5v-3.23c0-.28-.22-.5-.5-.5Zm-26.95,22.59l-5.31-10.18s0-.02,0-.03v-.87h10.43v.87s0,0,0,.01l-5.13,10.2Z"/>
  <path class="cls-1" d="m20.67,44.8c-.08,0-.16-.01-.24-.04-.21-.07-.65-.22-.62-.43.03-.24.09-.34.15-.52,4.02-11.76,14.8-18.88,27.24-18.88,7.25,0,13.87,2.28,19.23,7.15q.15.14.37.43c.12.15-.19.47-.32.62-.28.31-.75.33-1.05.05-5.08-4.62-11.35-6.76-18.23-6.76-11.8,0-21.28,6.79-25.83,17.88-.12.3-.4.5-.7.5Z"/>
  <path class="cls-1" d="m29.22,76.74c-.16-.04-.35-.17-.49-.28-5.98-4.92-9.7-11.86-10.46-19.53-.02-.17-.1-.57.04-.65.19-.11.38-.14.62-.16.4-.06.77.26.82.67.73,7.28,4.26,13.86,9.93,18.53.32.26.35.66.09.98-.15.18-.4.4-.55.46Z"/>
  <path class="cls-1" d="m47.2,83.07c-2.64,0-5.25-.35-7.76-1.05-.18-.05-.36-.08-.55-.2s-.03-.5.03-.72c.11-.4.52-.63.92-.52,2.38.66,4.86.99,7.36.99,15.21,0,27.58-12.37,27.58-27.58,0-4.98-1.1-8.96-3.64-13.21-.21-.35-.16-.95.24-1.2.2-.13.31-.21.49-.24.15-.02.38.32.47.47,2.67,4.48,3.93,8.94,3.93,14.19,0,16.03-13.04,29.07-29.07,29.07Z"/>
  <g>
    <path class="cls-1" d="m33.97,71.21l8.83-17.7-4.37-8.48h-3.01c-.45,0-.81-.36-.81-.81v-8.07c0-.45.36-.81.81-.81h22.33c.45,0,.81.36.81.81v8.08c0,.45-.36.81-.81.81h-2.99l-4.2,8.42,2.04,3.95,12.51-21.7c-4.62-4.52-10.93-7.31-17.9-7.31-12.31,0-22.58,8.69-25.04,20.26l11.81,22.55Z"/>
    <path class="cls-1" d="m57.32,63.06v6.19c0,.45-.36.81-.81.81h-8.07c-.45,0-.81-.36-.81-.81v-6.35l-.91-1.77-8.43,16.89c2.77,1.03,5.77,1.59,8.9,1.59,14.14,0,25.6-11.46,25.6-25.6,0-4.47-1.15-8.67-3.16-12.32l-12.32,21.38Z"/>
  </g>
</svg>